<svg width="24" height="25" viewBox="0 0 24 25" fill="none" xmlns="http://www.w3.org/2000/svg">
<path fill-rule="evenodd" clip-rule="evenodd" d="M17.1583 5.33289C17.6353 4.89822 18.3649 4.89823 18.842 5.33291C18.8647 5.35362 18.8944 5.38351 18.9982 5.48975C19.0978 5.59166 19.1257 5.62063 19.1453 5.64316C19.5563 6.11406 19.5563 6.81617 19.1453 7.28707C19.1257 7.3096 19.0978 7.33857 18.9982 7.44048L18.1571 8.30114C17.0575 8.32771 16.1526 7.40233 16.2163 6.29374L17.0021 5.48972C17.1059 5.38349 17.1355 5.3536 17.1583 5.33289ZM14.9536 5.43964L5.99393 14.6076L5.92211 14.6811C5.23016 15.3888 4.78328 15.8459 4.47289 16.4051C4.1625 16.9642 4.01091 17.5852 3.77618 18.5468L3.7518 18.6466L3.27145 20.6127C3.20892 20.8686 3.28526 21.1386 3.47256 21.3239C3.65986 21.5092 3.93065 21.5826 4.18589 21.5173L6.01397 21.0497L6.11592 21.0236C7.09748 20.7727 7.73142 20.6107 8.29801 20.2835C8.86458 19.9563 9.32181 19.4883 10.0298 18.7636L10.0298 18.7636L10.1033 18.6883L20.0709 8.48887L20.0855 8.47403C20.1638 8.39394 20.2241 8.3322 20.2754 8.27344C21.1796 7.23746 21.1796 5.69282 20.2754 4.65682C20.2242 4.59807 20.1638 4.53635 20.0856 4.45628L20.0855 4.45625L20.071 4.44137L20.0557 4.42577L20.0557 4.4257C19.9742 4.34234 19.9116 4.2782 19.8522 4.22413C18.8027 3.26784 17.1976 3.26782 16.148 4.22408C16.0887 4.27817 16.026 4.34233 15.9445 4.42573L15.9293 4.44132L14.9729 5.41993C14.9664 5.42638 14.9599 5.43295 14.9536 5.43964ZM14.933 7.60689C15.2781 8.5124 16.0014 9.23563 16.9062 9.58112L9.03054 17.6399C8.22384 18.4654 7.91433 18.7729 7.54792 18.9845C7.1815 19.1961 6.76039 19.3104 5.64222 19.5965L5.0253 19.7543L5.20894 19.0026C5.47653 17.9074 5.58363 17.4947 5.78437 17.1331C5.98511 16.7715 6.27868 16.4624 7.06671 15.656L14.933 7.60689Z" fill="#0D4477"/>
</svg>
