<svg width="24" height="25" viewBox="0 0 24 25" fill="none" xmlns="http://www.w3.org/2000/svg">
<path fill-rule="evenodd" clip-rule="evenodd" d="M5.46154 2.96426C5.48307 2.96427 5.50485 2.96428 5.52691 2.96428C5.54724 2.96428 5.56731 2.96427 5.58711 2.96426C5.91925 2.96412 6.17758 2.964 6.41628 3.00612C7.31569 3.16485 8.07763 3.75975 8.44975 4.59381C8.54851 4.81516 8.61105 5.06581 8.69147 5.38807C8.69626 5.40728 8.70112 5.42675 8.70605 5.44648L9.11967 7.10095L9.12872 7.13715C9.26881 7.69742 9.3877 8.17293 9.44488 8.5758C9.50576 9.0047 9.50752 9.41445 9.37061 9.83497C9.23371 10.2555 8.99105 10.5857 8.68934 10.8965C8.40593 11.1885 8.02987 11.5029 7.58678 11.8733L7.55817 11.8972L5.94594 13.2451C7.24925 15.6045 9.10973 17.4649 11.4691 18.7683L12.817 17.156L12.8409 17.1274C13.2113 16.6843 13.5257 16.3083 13.8177 16.0249C14.1285 15.7232 14.4587 15.4805 14.8792 15.3436C15.2998 15.2067 15.7095 15.2084 16.1384 15.2693C16.5413 15.3265 17.0168 15.4454 17.5771 15.5855L17.6132 15.5945L19.2677 16.0081C19.2874 16.0131 19.3069 16.0179 19.3261 16.0227C19.6484 16.1031 19.899 16.1657 20.1204 16.2644C20.9545 16.6366 21.5494 17.3985 21.7081 18.2979C21.7502 18.5366 21.7501 18.795 21.7499 19.1271C21.7499 19.1469 21.7499 19.167 21.7499 19.1873C21.7499 19.2093 21.7499 19.2311 21.7499 19.2527C21.7501 19.6357 21.7503 19.9379 21.6838 20.2357C21.4417 21.3197 20.4383 22.2299 19.336 22.3656C19.0336 22.4029 18.7737 22.3774 18.4505 22.3457C18.435 22.3442 18.4194 22.3427 18.4037 22.3411C15.764 22.0836 13.3883 21.4242 11.3191 20.3844C8.24492 18.8398 5.87438 16.4693 4.32976 13.3951C3.29005 11.3259 2.6306 8.95019 2.37306 6.31053C2.37152 6.29478 2.36999 6.27919 2.36848 6.26375C2.33679 5.94051 2.31132 5.68065 2.34855 5.37824C2.48427 4.27588 3.39448 3.27254 4.47845 3.03042C4.7763 2.96389 5.07852 2.96405 5.46154 2.96426ZM12.8576 19.4461C14.538 20.1663 16.4398 20.6424 18.5493 20.8482C18.9358 20.8859 19.0315 20.8918 19.1527 20.8769C19.6254 20.8187 20.116 20.3736 20.2199 19.9088C20.2458 19.7927 20.2499 19.6657 20.2499 19.1873C20.2499 18.7667 20.2471 18.6506 20.2309 18.5586C20.1588 18.1498 19.8883 17.8034 19.5092 17.6343C19.4239 17.5962 19.312 17.5654 18.9039 17.4634L17.2494 17.0497C16.6432 16.8982 16.2439 16.7993 15.9276 16.7544C15.6287 16.712 15.4696 16.7289 15.3436 16.7699C15.2175 16.8109 15.079 16.891 14.8624 17.1012C14.6332 17.3237 14.3686 17.6387 13.9678 18.1181L12.8576 19.4461ZM5.2681 11.8566L6.59606 10.7464C7.07547 10.3456 7.39051 10.081 7.61297 9.85179C7.82321 9.63518 7.90326 9.49666 7.9443 9.3706C7.98534 9.24455 8.00219 9.08546 7.95977 8.78659C7.91488 8.47034 7.81601 8.07097 7.66446 7.46476L7.25084 5.81028C7.14882 5.40221 7.11796 5.29028 7.07991 5.20498C6.91076 4.82586 6.56442 4.55545 6.1556 4.4833C6.06362 4.46707 5.94754 4.46428 5.52691 4.46428C5.04848 4.46428 4.92154 4.46841 4.80545 4.49434C4.34055 4.59818 3.89552 5.08876 3.83731 5.56153C3.8224 5.68267 3.82826 5.7784 3.86597 6.16487C4.07179 8.27441 4.54795 10.1762 5.2681 11.8566Z" fill="#0D4477"/>
</svg>
