<svg width="64" height="64" viewBox="0 0 64 64" fill="none" xmlns="http://www.w3.org/2000/svg">
<circle cx="32" cy="32" r="32" fill="#0D4477"/>
<path fill-rule="evenodd" clip-rule="evenodd" d="M32.0001 21.65C32.4144 21.65 32.7501 21.9857 32.7501 22.4V31.25H41.6001C42.0144 31.25 42.3501 31.5858 42.3501 32C42.3501 32.4142 42.0144 32.75 41.6001 32.75H32.7501V41.6C32.7501 42.0142 32.4144 42.35 32.0001 42.35C31.5859 42.35 31.2501 42.0142 31.2501 41.6V32.75H22.4001C21.9859 32.75 21.6501 32.4142 21.6501 32C21.6501 31.5858 21.9859 31.25 22.4001 31.25H31.2501V22.4C31.2501 21.9857 31.5859 21.65 32.0001 21.65Z" fill="#F8FAFC"/>
</svg>
